<svg role="img" xmlns="http://www.w3.org/2000/svg" viewBox="0 0 512 512">
	<symbol id="crow" viewBox="0 0 512 512">
		<g
	  	transform="translate(20.0,520.0) scale(0.25,-0.25)"
		>
	  	<g>
	      <path
	         d="M1074 1894 c-89 -46 -159 -129 -189 -222 -14 -43 -15 -62 -6 -114 6 -34 7 -66 2 -71 -4 -4 -34 15 -65 43 l-56 52 0 65 c0 35 -6 76 -14 91 -44 84 -163 127 -241 86 -24 -12 -37 -13 -78 -3 -162 39 -319 -47 -291 -160 11 -43 48 -56 59 -21 4 12 17 26 30 32 35 16 65 -7 123 -95 27 -39 86 -117 131 -172 44 -55 81 -103 81 -108 0 -9 -118 -4 -183 8 -31 6 -45 3 -77 -19 -123 -82 -215 -294 -190 -439 14 -81 59 -173 116 -236 25 -28 92 -89 148 -135 186 -153 236 -225 236 -343 0 -91 12 -108 35 -50 24 63 17 165 -15 232 -17 35 -74 99 -186 212 -175 175 -227 247 -246 338 -23 116 31 279 107 322 70 40 105 45 212 29 252 -37 287 -33 353 41 49 56 62 100 64 228 3 122 21 181 79 255 49 62 132 110 189 110 46 0 162 -58 222 -112 74 -65 136 -154 222 -320 126 -243 189 -294 332 -266 37 7 65 18 63 23 -2 6 -34 15 -71 21 -94 16 -134 38 -169 92 -28 44 -45 84 -115 269 -53 140 -165 267 -281 318 -117 52 -253 60 -331 19z m-426 -114 c63 -39 94 -127 52 -150 -21 -11 -28 -54 -10 -65 32 -20 -25 -103 -96 -141 l-36 -19 -22 29 c-19 26 -62 78 -150 182 -16 19 -27 36 -25 38 2 3 36 -15 74 -40 88 -57 121 -57 148 -2 16 32 17 41 5 65 -7 15 -25 32 -40 37 -24 8 -34 5 -74 -24 l-47 -33 -76 32 c-106 46 -118 47 -152 22 -40 -30 -37 -10 5 27 50 44 120 58 189 38 71 -21 84 -20 114 4 33 26 98 26 141 0z m-93 -111 c12 -19 -4 -61 -23 -57 -30 6 -28 68 2 68 8 0 18 -5 21 -11z m315 -239 c12 -8 12 -13 -2 -42 -46 -94 -131 -151 -192 -128 -31 11 -34 36 -7 45 11 3 39 25 62 48 53 51 99 87 113 87 6 0 18 -4 26 -10z"
					 />
	      <path
	         d="M1146 1746 c-52 -20 -101 -69 -134 -136 -23 -46 -28 -72 -32 -165 -5 -103 -8 -115 -45 -189 -34 -68 -47 -83 -84 -103 -57 -30 -131 -30 -271 -2 -125 26 -168 19 -229 -37 -58 -52 -85 -122 -78 -209 2 -39 14 -91 26 -118 25 -59 105 -144 224 -240 49 -40 114 -103 143 -141 49 -62 122 -196 125 -228 1 -7 5 5 9 27 12 58 -6 150 -43 220 -28 52 -48 72 -152 150 -201 150 -248 211 -261 338 l-7 67 49 49 c44 44 55 50 109 56 47 6 69 4 105 -10 58 -23 170 -30 239 -15 44 10 64 22 106 64 64 64 95 145 95 249 0 76 21 170 51 229 21 41 63 68 105 68 82 0 197 -108 284 -267 95 -173 131 -233 162 -268 37 -43 141 -94 208 -102 50 -6 144 13 135 27 -2 4 -30 10 -60 13 -134 14 -263 143 -380 382 -51 104 -155 227 -230 270 -53 32 -118 40 -169 21z" />
	      <path
	         d="M1130 1540 c-59 -59 -71 -133 -12 -78 75 70 130 35 252 -162 80 -128 105 -156 172 -189 104 -53 113 -41 35 48 -29 34 -80 111 -112 171 -69 129 -128 200 -188 229 -67 32 -100 28 -147 -19z" />
	      <path
	         d="M1104 1415 c-12 -8 -27 -28 -34 -45 -17 -40 0 -60 50 -60 34 0 47 -8 110 -70 70 -67 138 -110 173 -110 26 0 21 12 -24 55 -22 22 -65 77 -96 122 -74 111 -129 144 -179 108z" />
	      <path
	         d="M1039 1160 c-48 -90 -86 -115 -211 -140 -32 -6 -58 -14 -58 -18 0 -4 16 -18 35 -31 29 -19 42 -22 77 -17 58 9 118 46 167 103 45 51 54 73 49 123 -5 53 -24 46 -59 -20z" />
	      <path
	         d="M1133 1092 c-10 -10 -40 -44 -66 -76 -30 -34 -69 -67 -100 -82 -72 -36 -80 -44 -66 -60 19 -23 90 -17 150 14 40 20 61 39 83 74 47 78 46 180 -1 130z" />
	      <path
	         d="M1215 1050 c-11 -34 14 -88 58 -124 180 -147 414 -234 526 -195 41 14 40 29 -3 29 -20 0 -70 18 -122 44 -84 42 -134 73 -332 209 -88 61 -117 69 -127 37z" />
	      <path
	         d="M473 1015 c-62 -27 -68 -93 -18 -199 31 -67 73 -117 130 -158 45 -33 108 -91 143 -133 32 -36 49 -21 32 29 -14 44 -68 114 -166 218 -77 80 -93 116 -79 177 3 16 15 42 26 56 l20 25 -28 0 c-15 -1 -42 -7 -60 -15z" />
	      <path
	         d="M608 1019 c-14 -8 -18 -23 -18 -65 0 -62 15 -98 70 -164 42 -51 70 -101 70 -127 1 -37 33 42 34 82 0 31 -8 53 -37 93 -20 30 -42 73 -48 95 -6 23 -15 53 -19 67 -7 28 -26 35 -52 19z" />
	      <path
	         d="M1180 909 c0 -45 273 -290 388 -348 47 -23 103 -33 122 -21 21 13 -12 46 -150 145 -63 45 -162 119 -219 164 -108 83 -141 98 -141 60z" />
	      <path
	         d="M1130 851 c-19 -37 -10 -60 83 -186 158 -219 259 -312 313 -291 20 8 3 37 -114 196 -137 185 -236 300 -259 300 -7 0 -17 -9 -23 -19z" />
	      <path
	         d="M881 795 c-69 -59 -88 -130 -40 -156 28 -14 33 -6 21 30 -7 20 -7 31 -1 31 6 0 15 -14 21 -30 5 -17 19 -35 30 -41 20 -11 20 -9 12 37 -5 27 -8 73 -7 102 2 28 1 52 -2 52 -2 0 -17 -11 -34 -25z" />
	      <path
	         d="M1050 798 c0 -24 118 -305 181 -430 52 -102 119 -161 119 -104 0 95 -228 534 -283 544 -9 2 -17 -3 -17 -10z" />
	      <path
	         d="M977 768 c-2 -7 6 -57 19 -111 13 -53 39 -188 58 -299 19 -110 40 -206 46 -212 12 -12 28 8 42 49 12 38 8 176 -8 253 -18 90 -78 277 -100 310 -16 24 -49 30 -57 10z" />
	    </g>
	  </g>
	</symbol>
	<symbol id="wolf" viewBox="0 0 512 512">
		<g
	  	transform="translate(0.0, 500.0) scale(0.17,-0.17)"
	 	>
	    <g>
	      <path
	         d="m 2460,2819 c -30,-16 -64,-38 -75,-49 -20,-18 -388,-224 -433,-241 -15,-6 -39,-5 -65,2 -108,29 -277,4 -402,-58 -201,-101 -341,-217 -460,-383 -30,-41 -77,-100 -104,-130 -28,-30 -48,-56 -46,-58 2,-2 16,3 32,12 16,8 61,22 99,31 38,9 91,27 117,41 27,14 46,20 42,15 -11,-18 -64,-42 -138,-62 -92,-26 -128,-45 -216,-118 -41,-33 -119,-84 -172,-113 -96,-52 -98,-54 -99,-89 0,-42 25,-71 110,-128 182,-122 377,-141 635,-61 91,28 104,30 145,19 55,-15 89,-38 155,-102 61,-60 71,-44 24,40 -41,74 -78,127 -124,178 -19,22 -48,60 -62,85 -15,25 -44,64 -64,87 -46,50 -54,78 -40,129 25,89 -4,61 -48,-46 -31,-74 -39,-85 -90,-120 -31,-21 -69,-52 -85,-69 -17,-17 -33,-31 -37,-31 -4,0 -13,25 -20,55 -9,39 -17,55 -28,55 -27,-1 -95,-36 -132,-67 -56,-50 -97,-66 -146,-59 -54,7 -57,-10 -3,-24 48,-13 141,8 208,46 l 42,25 v -34 c 0,-19 -5,-49 -11,-66 -7,-19 -8,-36 -3,-41 17,-17 108,36 164,95 65,67 96,85 146,85 38,0 99,-33 109,-58 8,-22 -49,-67 -112,-90 -146,-52 -216,-66 -323,-66 -97,0 -111,2 -182,33 -73,31 -138,81 -138,106 0,18 39,48 136,103 171,97 273,132 391,132 55,0 67,4 94,28 31,27 32,33 40,130 4,59 15,116 25,137 9,20 14,38 10,42 -6,6 -147,-64 -201,-100 -16,-11 11,22 61,73 87,88 94,93 141,97 47,5 50,4 62,-24 10,-24 9,-42 -3,-94 -8,-35 -13,-65 -11,-67 1,-2 13,14 26,35 48,79 94,125 149,151 l 55,25 -103,20 c -65,12 -102,23 -99,31 5,16 175,131 183,123 4,-3 -7,-22 -25,-42 -17,-20 -31,-40 -31,-44 0,-14 59,-31 106,-31 49,0 55,10 22,34 l -23,16 34,29 c 18,16 34,40 35,53 1,20 6,23 36,20 51,-6 135,-39 156,-64 19,-21 19,-21 -1,-14 -48,19 -54,17 -135,-58 -45,-41 -106,-89 -136,-106 -82,-46 -197,-160 -224,-222 -18,-43 -21,-65 -18,-137 4,-122 17,-142 278,-435 57,-65 87,-92 92,-83 4,6 17,40 29,74 32,97 29,211 -11,348 -26,91 -32,134 -37,248 -3,75 -9,137 -13,137 -4,0 -28,-23 -54,-50 -62,-67 -98,-145 -104,-230 -4,-60 -1,-73 24,-120 31,-57 73,-91 60,-49 -27,85 -23,201 8,271 14,32 14,30 9,-37 -4,-55 1,-93 22,-180 27,-110 29,-185 7,-207 -22,-22 -125,92 -189,207 -23,42 -28,62 -27,120 0,95 33,165 120,255 105,109 324,227 341,184 7,-20 -23,-70 -64,-103 -42,-35 -53,-38 -53,-16 0,25 -19,17 -26,-12 -4,-15 -8,-61 -8,-103 0,-58 5,-87 23,-127 13,-29 26,-53 30,-53 3,0 6,40 6,88 0,78 3,93 25,124 103,146 104,148 108,213 4,58 2,65 -22,86 -31,27 -33,39 -5,39 25,0 55,15 89,44 23,19 23,19 9,1 -36,-45 -49,-88 -49,-165 0,-68 -3,-81 -31,-125 -79,-125 -88,-207 -35,-345 19,-49 49,-147 67,-217 17,-70 35,-135 40,-143 32,-60 21,198 -15,359 -42,183 -32,282 34,338 49,42 70,51 128,59 29,3 54,10 57,14 2,4 -15,13 -38,20 -95,28 -123,59 -105,113 23,64 192,193 306,233 28,10 52,21 52,25 0,3 -15,11 -32,17 l -33,12 33,-5 c 18,-3 49,-17 68,-32 27,-20 38,-23 43,-14 13,20 31,-44 31,-108 0,-72 -13,-117 -60,-216 -81,-168 -81,-295 -1,-352 25,-17 75,-12 124,13 27,14 28,14 18,-4 -19,-35 -81,-90 -164,-145 -108,-71 -171,-142 -234,-264 -28,-56 -54,-98 -57,-95 -3,3 -6,24 -7,46 -1,50 -13,94 -21,81 -15,-26 -40,-155 -40,-207 0,-58 9,-147 19,-183 11,-39 -52,32 -96,110 -31,53 -51,107 -70,187 -15,62 -35,129 -44,148 l -17,35 5,-45 c 3,-25 9,-107 15,-183 8,-122 12,-146 40,-206 35,-75 79,-116 180,-166 64,-32 161,-67 168,-60 3,2 -6,22 -20,42 -33,50 -53,90 -79,154 l -20,53 42,-47 c 23,-27 56,-62 73,-79 30,-31 31,-31 34,-9 2,12 -3,32 -11,45 -31,47 -60,165 -55,225 9,127 130,289 291,391 110,69 167,153 169,248 1,63 -9,92 -33,92 -10,0 -28,9 -39,20 -29,29 -60,26 -60,-4 0,-40 -11,-56 -51,-76 -57,-30 -69,-27 -69,18 0,60 27,138 83,242 52,94 52,96 51,180 -2,112 -40,241 -87,287 l -32,32 z"
	         />
	      <path
	         d="m 1867,1484 c -4,-38 -24,-139 -46,-224 -21,-85 -42,-174 -46,-197 l -7,-43 -28,15 c -16,8 -55,45 -87,82 -85,98 -205,223 -215,223 -4,0 6,-21 21,-46 16,-25 41,-76 56,-112 52,-129 130,-212 290,-304 190,-109 212,-114 160,-32 -80,124 -80,128 -77,416 2,143 -1,265 -6,274 -6,11 -11,-4 -15,-52 z" />
	      <path
	         d="m 660,1364 c -41,-25 -100,-67 -130,-93 -30,-26 -81,-64 -112,-84 -32,-20 -58,-40 -58,-43 0,-4 52,-4 116,0 l 115,6 -55,-65 c -31,-37 -56,-70 -56,-75 0,-5 21,-3 47,5 51,16 133,89 184,164 38,58 38,74 -1,67 -16,-3 -44,-9 -61,-12 l -32,-6 23,32 c 12,17 47,58 77,91 69,74 49,79 -57,13 z" />
	      <path
	         d="m 942,1321 c -46,-16 -87,-32 -91,-37 -5,-5 -28,-53 -51,-108 -37,-84 -50,-103 -89,-131 -50,-37 -181,-90 -266,-108 -39,-8 -70,-23 -102,-49 -25,-21 -59,-46 -74,-55 -62,-37 -22,-52 75,-29 39,9 75,16 80,16 5,0 -21,-31 -57,-69 -44,-47 -79,-98 -108,-155 -23,-47 -40,-88 -37,-91 2,-3 19,0 36,6 17,6 43,9 58,7 l 27,-3 -25,-30 C 287,448 207,299 214,292 c 17,-17 181,145 283,278 23,30 60,73 82,95 37,35 52,65 34,65 -4,0 -36,-18 -72,-39 -66,-40 -170,-85 -178,-78 -4,5 42,52 197,202 98,96 145,135 163,135 15,0 -6,-45 -41,-87 -39,-49 -28,-54 33,-19 29,17 58,50 94,105 33,49 68,90 94,107 101,66 192,162 173,182 -4,3 -21,-8 -39,-26 -30,-29 -164,-98 -173,-89 -7,7 36,83 69,123 16,19 54,49 83,66 30,16 54,32 54,34 0,11 -53,0 -128,-25 z" />
	      <path
	         d="m 1308,1208 c -3,-86 -8,-112 -30,-158 -35,-72 -48,-86 -151,-159 C 1025,818 967,760 919,684 900,654 870,609 853,584 c -18,-24 -33,-46 -33,-49 0,-3 26,-5 58,-5 32,0 85,-7 117,-16 238,-62 488,-58 529,8 14,23 -12,98 -66,187 -51,84 -76,111 -102,111 -31,0 -138,-67 -187,-116 l -42,-43 29,-12 c 16,-6 58,-13 94,-16 l 65,-4 -32,30 -32,30 37,31 c 20,16 41,29 47,27 16,-5 85,-146 85,-173 0,-23 -3,-24 -67,-24 -38,0 -98,7 -134,14 -88,19 -199,70 -199,92 0,21 137,157 215,214 33,23 75,57 93,73 l 32,31 41,-40 c 101,-98 245,-314 269,-404 l 12,-44 -49,-46 c -28,-28 -72,-56 -108,-71 -54,-21 -76,-24 -210,-24 -169,0 -239,11 -400,63 -83,27 -128,36 -182,36 -40,1 -73,2 -73,3 0,2 20,31 45,64 25,34 63,96 85,138 46,88 160,223 280,331 68,61 89,87 117,146 28,59 34,81 31,125 l -3,54 -31,-65 C 1145,1156 1108,1114 993,1023 799,869 673,703 427,279 313,83 310,70 398,151 c 39,37 104,84 144,105 66,34 82,38 165,42 73,4 105,0 160,-17 97,-30 100,-33 78,-68 -10,-15 -45,-56 -78,-90 l -59,-62 34,5 c 18,3 92,34 163,69 72,35 148,68 170,74 65,15 215,24 215,13 0,-6 -31,-42 -70,-80 -38,-38 -70,-72 -70,-75 0,-8 55,2 100,18 67,24 211,129 300,219 47,47 88,86 92,86 16,0 30,-121 26,-222 -4,-87 -2,-105 8,-97 48,40 126,252 145,394 10,79 10,97 -5,149 -20,67 -62,135 -100,160 -32,20 -32,18 -2,-58 27,-70 40,-167 28,-211 l -8,-30 -27,59 c -64,140 -165,280 -308,431 -110,116 -118,128 -148,245 -13,47 -26,89 -31,93 -4,5 -9,-38 -12,-95 z"
					 />
	      <path
	         d="m 1950,1146 c 0,-9 11,-39 25,-66 63,-125 110,-331 129,-564 7,-88 -6,-78 -58,43 -20,46 -43,93 -51,105 -14,19 -15,19 -15,1 0,-10 5,-45 12,-77 21,-100 -24,-353 -81,-467 -23,-45 -22,-57 4,-48 38,15 135,210 135,273 0,29 19,12 44,-38 17,-35 28,-81 33,-133 9,-89 25,-104 53,-50 25,49 19,344 -9,517 -31,186 -28,197 31,117 26,-35 64,-101 85,-146 20,-46 41,-83 45,-83 11,0 10,60 -3,122 -16,79 -71,184 -136,263 -81,98 -243,252 -243,231 z" />
	    </g>
	  </g>
	</symbol>
	<symbol id="throne" viewBox="0 0 512 512">
		<g
			transform="translate(45, 600.0) scale(0.2,-0.2)"
		>
			<g>
				<path
         d="M572 2058 l3 -823 465 0 465 0 3 823 2 822 -80 0 -80 0 0 -75 0 -75 -115 0 -115 0 0 75 0 75 -80 0 -80 0 0 -75 0 -75 -115 0 -115 0 0 75 0 75 -80 0 -80 0 2 -822z" />
      <path
         d="M215 1472 c-162 -77 -149 -316 20 -372 l35 -12 0 -389 0 -390 113 3 112 3 3 511 2 511 -23 44 c-50 94 -169 135 -262 91z" />
      <path
         d="M1689 1467 c-24 -13 -57 -43 -74 -66 l-30 -43 0 -521 0 -522 113 -3 112 -3 0 390 0 389 35 12 c110 36 166 168 116 275 -48 103 -171 145 -272 92z" />
      <path
         d="M572 1083 l3 -78 465 0 465 0 3 78 3 77 -471 0 -471 0 3 -77z" />
      <path
         d="M572 623 l3 -308 465 0 465 0 3 308 2 307 -470 0 -470 0 2 -307z" />
			</g>
		</g>
	</symbol>
	<symbol id="gates" viewBox="0 0 512 512">
		<g
			transform="translate(20.0, 10.0) scale(0.95,0.95)"
		>
			<g>
				<path
					d="M128.73 195.32l-82.81-51.76c-8.04-5.02-18.99-2.17-22.93 6.45A254.19 254.19 0 0 0 .54 239.28C-.05 248.37 7.59 256 16.69 256h97.13c7.96 0 14.08-6.25 15.01-14.16 1.09-9.33 3.24-18.33 6.24-26.94 2.56-7.34.25-15.46-6.34-19.58zM319.03 8C298.86 2.82 277.77 0 256 0s-42.86 2.82-63.03 8c-9.17 2.35-13.91 12.6-10.39 21.39l37.47 104.03A16.003 16.003 0 0 0 235.1 144h41.8c6.75 0 12.77-4.23 15.05-10.58l37.47-104.03c3.52-8.79-1.22-19.03-10.39-21.39zM112 288H16c-8.84 0-16 7.16-16 16v64c0 8.84 7.16 16 16 16h96c8.84 0 16-7.16 16-16v-64c0-8.84-7.16-16-16-16zm0 128H16c-8.84 0-16 7.16-16 16v64c0 8.84 7.16 16 16 16h96c8.84 0 16-7.16 16-16v-64c0-8.84-7.16-16-16-16zm77.31-283.67l-36.32-90.8c-3.53-8.83-14.13-12.99-22.42-8.31a257.308 257.308 0 0 0-71.61 59.89c-6.06 7.32-3.85 18.48 4.22 23.52l82.93 51.83c6.51 4.07 14.66 2.62 20.11-2.79 5.18-5.15 10.79-9.85 16.79-14.05 6.28-4.41 9.15-12.17 6.3-19.29zM398.18 256h97.13c9.1 0 16.74-7.63 16.15-16.72a254.135 254.135 0 0 0-22.45-89.27c-3.94-8.62-14.89-11.47-22.93-6.45l-82.81 51.76c-6.59 4.12-8.9 12.24-6.34 19.58 3.01 8.61 5.15 17.62 6.24 26.94.93 7.91 7.05 14.16 15.01 14.16zm54.85-162.89a257.308 257.308 0 0 0-71.61-59.89c-8.28-4.68-18.88-.52-22.42 8.31l-36.32 90.8c-2.85 7.12.02 14.88 6.3 19.28 6 4.2 11.61 8.9 16.79 14.05 5.44 5.41 13.6 6.86 20.11 2.79l82.93-51.83c8.07-5.03 10.29-16.19 4.22-23.51zM496 288h-96c-8.84 0-16 7.16-16 16v64c0 8.84 7.16 16 16 16h96c8.84 0 16-7.16 16-16v-64c0-8.84-7.16-16-16-16zm0 128h-96c-8.84 0-16 7.16-16 16v64c0 8.84 7.16 16 16 16h96c8.84 0 16-7.16 16-16v-64c0-8.84-7.16-16-16-16zM240 177.62V472c0 4.42 3.58 8 8 8h16c4.42 0 8-3.58 8-8V177.62c-5.23-.89-10.52-1.62-16-1.62s-10.77.73-16 1.62zm-64 41.51V472c0 4.42 3.58 8 8 8h16c4.42 0 8-3.58 8-8V189.36c-12.78 7.45-23.84 17.47-32 29.77zm128-29.77V472c0 4.42 3.58 8 8 8h16c4.42 0 8-3.58 8-8V219.13c-8.16-12.3-19.22-22.32-32-29.77z"
				/>
			</g>
		</g>
	</symbol>
</svg>
